<svg width="166" height="70" viewBox="0 0 166 70" fill="none" xmlns="http://www.w3.org/2000/svg">
<path d="M165.25 45.7249H19.3432C8.92126 45.7249 0.416992 37.2451 0.416992 26.7701V19.2879C0.416992 8.81282 8.92126 0.333008 19.4265 0.333008H35.2678" fill="white"/>
<path d="M165.25 46.1401H19.343C8.67102 46.1401 0 37.4941 0 26.7696V19.2874C0 8.64608 8.67102 0 19.4264 0H35.2677V0.831354H19.4264C9.17127 0.831354 0.833752 9.14489 0.833752 19.3705V26.8527C0.833752 37.0784 9.17127 45.3919 19.4264 45.3919H165.333V46.1401H165.25Z" fill="black"/>
<path d="M131.733 70.0003L131.232 69.3352L164.582 45.7248L131.232 22.1143L131.733 21.4492L166 45.7248L131.733 70.0003Z" fill="black"/>
</svg>
