<svg width="23" height="23" viewBox="0 0 23 23" fill="none" xmlns="http://www.w3.org/2000/svg">
<g opacity="0.7">
<path d="M17.5035 10.075C16.3198 9.83467 15.5 10.5274 15.2053 11.6223C15.1688 11.758 15.2078 11.7957 15.3457 11.794C15.8845 11.7873 16.4234 11.7912 16.9623 11.7913C17.4921 11.7913 18.0218 11.7925 18.5516 11.79C18.6309 11.7896 18.7246 11.8323 18.7262 11.6675C18.7332 10.9334 18.1948 10.2153 17.5035 10.075Z" fill="black"/>
<path d="M6.10546 10.0087C6.56179 10.0014 7.0183 10.006 7.47474 10.006C7.47474 10.0051 7.47474 10.0043 7.47474 10.0034C7.93116 10.0034 8.38782 10.0126 8.84395 10.0009C9.31518 9.98879 9.53876 9.82959 9.65952 9.41648C9.79073 8.96759 9.80112 8.51197 9.65027 8.06354C9.53968 7.73476 9.30285 7.54371 8.98848 7.54194C8.02086 7.53649 7.05318 7.54206 6.08556 7.53712C5.95533 7.53645 5.91513 7.57301 5.91629 7.7063C5.92249 8.41266 5.92314 9.11914 5.91605 9.82547C5.91454 9.97477 5.96612 10.011 6.10546 10.0087Z" fill="black"/>
<path d="M8.70405 11.7917C8.31097 11.7917 7.91789 11.7917 7.52482 11.7917C7.05861 11.7917 6.59218 11.8001 6.12631 11.7874C5.95353 11.7827 5.91357 11.8354 5.91508 12.003C5.9233 12.9125 5.92198 13.822 5.91602 14.7314C5.91505 14.8789 5.94348 14.9373 6.10707 14.9358C7.02113 14.9274 7.93536 14.9378 8.84938 14.9281C9.35657 14.9228 9.75951 14.7042 9.95908 14.2217C10.1457 13.7704 10.1632 13.2879 10.0419 12.8168C9.84842 12.066 9.47412 11.7918 8.70405 11.7917Z" fill="black"/>
<path d="M22.5369 1.87742C21.9267 0.729083 20.9793 0.10568 19.6895 0.00536483C19.608 -0.000975337 19.5257 0.000400357 19.4438 0.000391818C14.1101 0.000186744 8.77632 -0.000505376 3.44258 0.000656705C1.90636 0.000989945 0.663525 0.882537 0.174431 2.31331C0.052489 2.67004 0.00028409 3.0382 0.000326599 3.41512C0.000828239 8.80531 -0.00156944 14.1955 0.00201008 19.5857C0.0031069 21.2334 1.06617 22.5544 2.66644 22.9286C2.73096 22.9437 2.82061 22.9123 2.8614 23C5.27516 23 7.68892 23 10.1027 23H14.1256C16.0626 23 17.9996 23 19.9365 23C20.1461 22.9444 20.3606 22.903 20.5644 22.8309C21.7577 22.4091 22.5069 21.5798 22.8097 20.3426C22.8274 20.2703 22.7996 20.1747 22.8867 20.125C22.8867 14.39 22.8867 8.65507 22.8867 2.92009C22.7648 2.57448 22.7122 2.20729 22.5369 1.87742ZM14.673 6.2453C14.8193 6.1051 15.194 6.20074 15.4674 6.20028C16.6567 6.19828 17.846 6.20574 19.0352 6.19379C19.2577 6.19155 19.3198 6.25817 19.3019 6.47057C19.2841 6.68051 19.2867 6.89394 19.3015 7.10435C19.3136 7.27521 19.259 7.32259 19.0887 7.32025C18.3845 7.31063 17.68 7.31622 16.9756 7.31622C16.262 7.31622 15.5483 7.30914 14.835 7.32104C14.6489 7.32414 14.5942 7.2662 14.6106 7.08965C14.6376 6.80013 14.4898 6.42078 14.673 6.2453ZM11.8156 15.702C11.0982 16.6901 10.0758 17.1279 8.90683 17.1593C7.17046 17.2058 5.43194 17.1689 3.69436 17.1755C3.51395 17.1762 3.46299 17.1267 3.46322 16.9442C3.46831 13.2127 3.46826 9.48128 3.46334 5.74986C3.4631 5.57018 3.50895 5.51551 3.69223 5.51623C5.42065 5.52301 7.14918 5.5123 8.87757 5.52361C9.77549 5.52947 10.6206 5.71273 11.28 6.39826C12.0451 7.19359 12.2914 8.75552 11.8028 9.74669C11.5482 10.2632 11.121 10.5644 10.512 10.7317C11.4918 10.8317 12.01 11.3847 12.2583 12.2365C12.3745 12.6353 12.434 13.0441 12.4293 13.4595C12.4204 14.2602 12.3001 15.0348 11.8156 15.702ZM20.8499 13.1808C20.846 13.3575 20.7592 13.3647 20.626 13.3642C19.7571 13.3609 18.8883 13.3625 18.0195 13.3626C17.1506 13.3626 16.2817 13.3681 15.413 13.3582C15.2278 13.3561 15.1887 13.4112 15.1972 13.5893C15.2581 14.8559 16.149 15.5797 17.4505 15.4081C17.7594 15.3673 18.0611 15.3072 18.3298 15.1307C18.5864 14.962 18.7729 14.7439 18.8197 14.435C18.8411 14.2939 18.8965 14.2572 19.0315 14.2591C19.5527 14.2662 20.0742 14.2667 20.5954 14.2588C20.7352 14.2567 20.7556 14.301 20.7505 14.4327C20.7081 15.5275 20.1916 16.3241 19.2197 16.7888C18.0312 17.3571 16.7802 17.4016 15.5305 17.0392C14.1214 16.6306 13.3368 15.6082 13.0168 14.2155C12.7095 12.8781 12.8875 11.5875 13.5367 10.3755C14.1282 9.27115 15.0656 8.65155 16.291 8.47341C17.0124 8.36854 17.735 8.37853 18.4347 8.61042C19.5783 8.98939 20.2516 9.82145 20.6014 10.9466C20.8277 11.6741 20.8663 12.424 20.8499 13.1808ZM17.5663 14.6317C17.5427 14.7806 17.5113 14.864 17.3492 14.875L17.5663 14.6317Z" fill="black"/>
</g>
</svg>
