<svg width="23" height="23" viewBox="0 0 23 23" fill="none" xmlns="http://www.w3.org/2000/svg">
<path opacity="0.7" d="M22.9227 20.3426C22.9405 20.2703 22.9125 20.1747 23 20.125C23 14.39 23 8.65507 23 2.92009C22.8775 2.57447 22.8246 2.20729 22.6485 1.87742C22.0352 0.729078 21.0831 0.105674 19.787 0.00536857C19.705 -0.000971824 19.6224 0.000399076 19.54 0.000395646C14.1799 0.000186582 8.81976 -0.00050572 3.45963 0.000656116C1.9158 0.000991988 0.666811 0.88254 0.175299 2.31331C0.0527539 2.67005 0.00029051 3.0382 0.000326825 3.41513C0.000830948 8.80531 -0.00157433 14.1955 0.0020165 19.5857C0.00311662 21.2334 1.07144 22.5544 2.67964 22.9286C2.74447 22.9437 2.83458 22.9123 2.87556 23C5.30127 23 7.72698 23 10.1527 23C10.1527 20.3649 10.1505 17.7297 10.1574 15.0946C10.1579 14.9088 10.116 14.8612 9.92819 14.8641C9.16481 14.8763 8.40107 14.8651 7.63757 14.8728C7.49118 14.8742 7.45323 14.836 7.45396 14.6893C7.46012 13.4616 7.46012 12.2338 7.45396 11.0061C7.45323 10.8594 7.49122 10.8213 7.63758 10.8227C8.41605 10.8303 9.19469 10.8222 9.97316 10.8299C10.1207 10.8314 10.1575 10.7915 10.1562 10.6458C10.149 9.82239 10.1513 8.99887 10.153 8.17539C10.1576 5.82021 11.9291 4.0477 14.2838 4.04354C15.549 4.0413 16.8141 4.04649 18.0793 4.03902C18.2437 4.03805 18.2891 4.07271 18.2879 4.24395C18.2793 5.45665 18.2798 6.66947 18.2875 7.88219C18.2885 8.04713 18.2531 8.0918 18.0823 8.09062C16.8546 8.08211 15.6269 8.08959 14.3992 8.08188C14.2338 8.08084 14.1886 8.11683 14.1909 8.28735C14.2015 9.06578 14.201 9.84449 14.1912 10.6229C14.1891 10.7892 14.2275 10.8319 14.3972 10.8308C15.6098 10.8224 16.8226 10.8263 18.0354 10.8263C18.1097 10.8263 18.1841 10.8263 18.2812 10.8263C18.1852 11.411 18.0921 11.9818 17.9976 12.5524C17.8828 13.2455 17.7639 13.9379 17.6533 14.6317C17.6272 14.795 17.5923 14.8798 17.3843 14.8765C16.3889 14.8603 15.3931 14.8738 14.3975 14.8647C14.2286 14.8632 14.1911 14.9054 14.1914 15.0721C14.1973 17.7147 14.1956 20.3574 14.1956 23C16.1421 23 18.0887 23 20.0352 23C20.2458 22.9444 20.4614 22.903 20.6662 22.8309C21.8654 22.4091 22.6183 21.5798 22.9227 20.3426Z" fill="black"/>
</svg>
