<svg width="117" height="120" viewBox="0 0 117 120" fill="none" xmlns="http://www.w3.org/2000/svg">
<path d="M58.9782 0C66.842 0 74.2275 1.49533 81.1349 4.48598C88.1485 7.36983 94.312 11.5354 99.6254 16.9826C105.045 22.3231 109.296 28.7316 112.377 36.2083C115.459 43.6849 117 51.9626 117 61.0414C117 62.8571 116.841 65.3138 116.522 68.4112C116.309 71.5087 115.778 74.8198 114.928 78.3445C114.078 81.8692 112.802 85.2336 111.102 88.4379C109.508 91.5354 107.277 94.0988 104.407 96.1282C101.538 98.1575 97.9782 99.1722 93.7275 99.1722C90.2207 99.1722 87.5109 98.478 85.5981 97.0895C83.7916 95.7009 82.5163 93.8852 81.7725 91.6422C81.1349 89.3992 80.6567 86.996 80.3379 84.4326C77.4687 87.53 73.6431 90.2003 68.861 92.4433C64.1853 94.6862 59.0313 95.8077 53.3992 95.8077C45.8542 95.8077 39.9564 93.7784 35.7057 89.7196C31.5613 85.6609 29.4891 80.534 29.4891 74.3391C29.4891 68.8919 30.9768 64.6195 33.9523 61.522C36.9278 58.4246 40.6471 56.235 45.1104 54.9533C49.6798 53.5648 54.3025 52.8705 58.9782 52.8705C63.654 52.8705 67.7452 53.3511 71.252 54.3124C74.8651 55.1669 77.5218 55.9146 79.2221 56.5554C79.2221 51.4286 78.6376 46.9426 77.4687 43.0975C76.406 39.2523 74.4401 36.2617 71.5708 34.1255C68.7016 31.8825 64.6635 30.761 59.4564 30.761C55.312 30.761 51.327 31.4553 47.5014 32.8438C43.6758 34.1255 40.2221 35.9413 37.1403 38.2911L34.2711 32.0427C38.0967 29.4793 42.188 27.4499 46.545 25.9546C50.9019 24.4593 55.5245 23.7116 60.4128 23.7116C66.3638 23.7116 71.0395 24.6729 74.4401 26.5955C77.9469 28.518 80.5504 31.1348 82.2507 34.4459C83.951 37.6502 85.0668 41.1749 85.5981 45.02C86.1294 48.8652 86.3951 52.7103 86.3951 56.5554V77.223C86.3951 80.3204 86.5545 83.0975 86.8733 85.5541C87.2984 88.0107 88.0954 89.9332 89.2643 91.3218C90.4333 92.6035 92.2398 93.2443 94.6839 93.2443C97.9782 93.2443 100.688 92.1228 102.813 89.8798C105.045 87.6368 106.745 84.8064 107.914 81.3885C109.189 77.9706 110.04 74.3925 110.465 70.6542C110.996 66.9159 111.262 63.6048 111.262 60.721C111.262 52.9239 109.933 45.7143 107.277 39.0921C104.726 32.3632 101.06 26.4887 96.2779 21.4686C91.4959 16.4486 85.9169 12.5501 79.5409 9.77303C73.1649 6.88919 66.2575 5.44727 58.8188 5.44727C51.4864 5.44727 44.6322 6.78238 38.2561 9.45261C31.8801 12.1228 26.248 15.9146 21.3597 20.8278C16.4714 25.6342 12.6458 31.4019 9.88283 38.1308C7.11989 44.753 5.73842 51.9626 5.73842 59.7597C5.73842 67.3431 7.01362 74.4459 9.56403 81.0681C12.2207 87.6903 15.8869 93.5113 20.5627 98.5314C25.3447 103.551 30.9237 107.45 37.2997 110.227C43.6758 113.111 50.5831 114.553 58.0218 114.553C62.485 114.553 66.6826 113.965 70.6144 112.79C74.5463 111.722 78.4782 110.28 82.4101 108.465L84.4823 113.591C80.2316 115.728 75.8215 117.33 71.252 118.398C66.7888 119.466 62.3256 120 57.8624 120C49.8924 120 42.4005 118.505 35.3869 115.514C28.4796 112.523 22.3692 108.304 17.0559 102.857C11.7425 97.5167 7.54496 91.1615 4.46322 83.7917C1.48774 76.4219 0 68.4112 0 59.7597C0 50.6809 1.59401 42.51 4.78202 35.247C8.07629 27.8772 12.4864 21.5754 18.0123 16.3418C23.5381 11.1081 29.8079 7.10281 36.8215 4.32577C43.9414 1.44192 51.327 0 58.9782 0ZM68.7016 85.3939C71.6771 84.0053 73.9087 82.4566 75.3965 80.7477C76.8842 78.9319 77.8406 77.0093 78.2657 74.98C78.797 72.9506 79.0627 70.9746 79.0627 69.0521V62.6435C77.6812 62.5367 75.1839 61.9493 71.5708 60.8812C68.064 59.7063 63.7602 59.1188 58.6594 59.1188C54.9401 59.1188 51.3801 59.5461 47.9796 60.4005C44.6853 61.255 41.9755 62.8037 39.8501 65.0467C37.8311 67.1829 36.8215 70.1736 36.8215 74.0187C36.8215 77.0093 37.5654 79.6262 39.0531 81.8692C40.5409 84.1121 42.5599 85.8745 45.1104 87.1562C47.6608 88.3311 50.5831 88.9186 53.8774 88.9186C56.4278 88.9186 59.0313 88.5981 61.688 87.9573C64.3447 87.2096 66.6826 86.3551 68.7016 85.3939Z" fill="#FBD300"/>
</svg>
