<svg width="23" height="23" viewBox="0 0 23 23" fill="none" xmlns="http://www.w3.org/2000/svg">
<path opacity="0.7" d="M3.63853 22.5875C4.36463 22.8919 5.13131 22.9998 5.9172 22.9992C9.64376 22.9964 13.3703 23.0049 17.0969 22.9953C19.3717 22.9895 21.1024 21.9943 22.2614 20.0401C22.7746 19.1749 22.996 18.216 22.9965 17.2102C22.9982 13.4012 23.0044 9.5922 22.9946 5.78322C22.988 3.2392 21.4074 1.07672 18.993 0.275527C18.6383 0.157849 18.272 0.0817904 17.8992 0.0423473C17.8588 0.0380723 17.8067 0.060621 17.7869 0C13.5647 0 9.3426 0 5.12046 0C4.82642 0.126245 4.50317 0.125114 4.19935 0.217742C2.39435 0.767983 1.13216 1.91271 0.405255 3.65029C0.22303 4.08588 0.118582 4.54344 0.0494993 5.00958C0.0435282 5.04988 0.0592912 5.1029 0 5.12063C0 9.37285 0 13.6251 0 17.8773C0.12607 18.1719 0.12547 18.4955 0.218061 18.7998C0.765946 20.6002 1.9081 21.8619 3.63853 22.5875ZM17.7291 3.83273C18.5168 3.83537 19.1813 4.50705 19.1644 5.2836C19.147 6.08497 18.496 6.71631 17.7028 6.70103C16.9029 6.68561 16.2762 6.03205 16.2967 5.23475C16.3167 4.4585 16.9587 3.83014 17.7291 3.83273ZM11.4828 6.70642C14.0957 6.67345 16.2692 8.83531 16.291 11.4888C16.3125 14.1085 14.1454 16.2821 11.5029 16.2915C8.87444 16.3008 6.70318 14.1308 6.7062 11.4976C6.70924 8.86483 8.82768 6.73993 11.4828 6.70642Z" fill="black"/>
</svg>
