<svg width="212" height="180" viewBox="0 0 212 180" fill="none" xmlns="http://www.w3.org/2000/svg">
<path d="M144.76 50.0285C158.619 50.0285 169.855 38.8292 169.855 25.0142C169.855 11.1993 158.619 0 144.76 0C130.9 0 119.665 11.1993 119.665 25.0142C119.665 38.8292 130.9 50.0285 144.76 50.0285Z" fill="#FBD300"/>
<path d="M128.791 81.7838C126.561 85.3423 124.247 89.0267 122.036 92.5475L119.31 96.8888C116.384 101.543 113.812 105.635 112.077 108.388C108.77 113.664 103.983 121.312 99.9585 127.791L98.5241 130.101L109.15 130.031L138.918 83.0741L142.048 87.9115C154.876 107.738 174.072 137.425 192.595 166.203L196.279 171.926H15.6582L19.2185 166.242C45.3961 124.443 66.7819 90.3315 86.5206 58.8901L89.7133 53.8043L92.8088 58.95C93.0353 59.3264 93.2428 59.6532 93.4341 59.9537L93.4637 60.0002C93.7442 60.4411 94.034 60.897 94.3101 61.3896L95.4278 63.1807C97.7974 66.969 102.208 74.0214 105.758 79.6498L107.023 81.6552L112.226 73.3734L89.9941 37.3631L41.8247 113.278C35.7669 122.962 27.6994 135.825 19.5952 148.745L18.2456 150.897C12.3542 160.289 6.50106 169.621 1.43859 177.703L0 180H212L138.811 65.8186L128.791 81.7838Z" fill="#FBD300"/>
</svg>
