<svg width="349" height="340" viewBox="0 0 349 340" fill="none" xmlns="http://www.w3.org/2000/svg">
<path d="M240.501 0L0 24.2383V281.059L107.923 339.844L341.89 315.791L348.669 315.038V57.9678L241.263 0.40918L240.501 0ZM246.631 64.1338V20.6533L315.153 57.3594L246.631 64.1338ZM246.631 247.498V79.5693L333.309 71.0605V295.216L246.631 247.498ZM237.325 259.907L315.826 303.163L300.514 304.78L118.387 324.164L118.218 270.908L237.325 259.907ZM231.271 81.083V245.08L118.14 255.554L117.726 92.2217L231.271 81.083ZM231.271 16.3418V65.6465L111.599 77.3906L33.6626 36.2695L231.271 16.3418ZM103.11 319.778L28.5903 279.186L102.939 272.349L103.11 319.778ZM15.4424 265.002V44.0391L102.448 89.875L102.944 256.91L15.4424 265.002Z" fill="#FBD300"/>
</svg>
