<svg width="283" height="342" viewBox="0 0 283 342" fill="none" xmlns="http://www.w3.org/2000/svg">
<path d="M56.3926 32.9736C82.9546 20.8047 112.316 14.3906 141.404 14.3906C141.86 14.3906 142.32 14.3916 142.776 14.3955H142.814C180.146 14.1455 210.368 24.3633 229.181 32.9678L231.643 34.0928L238.507 20.7529L235.754 19.5381C213.617 9.77441 190.283 3.58984 166.398 1.15625C158.69 0.371094 150.765 0.0185547 142.815 0C134.806 0.0146484 126.866 0.374023 119.194 1.15625C95.3784 3.58203 72.0254 9.7666 49.7837 19.5361L47.0146 20.7529L53.939 34.0977L56.3926 32.9736Z" fill="#FBD300"/>
<path d="M203.56 51.553C153.988 34.7649 104.113 37.9827 55.3223 61.1165L55.0278 61.2786C30.0757 76.9641 13.5918 92.1497 1.58057 110.514L0 112.93L13.1182 121.171L14.646 118.865C18.0166 113.779 22.3613 108.347 27.9561 102.23C53.6289 73.345 95.9399 56.1009 141.138 56.1009C145.07 56.1009 149.048 56.2347 152.964 56.4993C175.889 58.0472 198.194 64.2444 217.469 74.4231C237.88 85.2014 254.884 100.182 268.005 118.949L269.551 121.159L282.68 112.921L280.922 110.47C260.387 81.8372 234.359 62.0149 203.56 51.553Z" fill="#FBD300"/>
<path d="M277.085 199.027C273.16 164.821 253.155 132.169 222.199 109.444C191.098 86.6143 153.774 77.2666 119.799 83.8018C76.648 92.1319 44.2608 115.743 20.7867 155.983L20.5753 156.433C19.8687 158.352 19.147 160.255 18.4278 162.15L18.3829 162.269C16.2496 167.895 14.2349 173.208 12.6002 178.806C3.95222 212.277 8.93269 245.51 15.6031 276.436L16.2008 279.206L31.2169 275.969L30.6358 273.208C23.8516 240.984 18.6265 209.455 29.0626 177.992C37.3687 152.864 52.9478 132.046 74.1168 117.786C95.147 103.621 120.762 96.5352 148.172 97.3321C195.847 98.6778 245.414 137.829 258.662 184.587C263.634 202.603 262.644 218.581 255.644 233.415C249.005 247.19 239.527 253.652 226.668 253.099C210.493 252.476 199.618 244.825 195.206 230.94C193.522 225.87 192.063 220.566 190.638 215.387C189.25 210.346 187.815 205.133 186.173 200.191C178.88 177.668 165.177 167.623 141.743 167.623C138.838 167.623 135.702 167.776 132.425 168.078C110.949 170.036 96.0865 185.13 92.6695 208.445C86.7447 248.015 100.443 281.907 135.768 315.098C148.403 327.1 163.059 335.679 179.33 340.598L182.085 341.43L186.191 327.065L183.587 326.221C183.389 326.157 183.19 326.092 182.958 326.01C163.13 319.328 142.569 303.417 127.957 283.447C111.385 260.799 104.267 235.582 107.916 212.433C110.722 194.232 120.418 184.287 136.731 182.872C156.515 181.193 166.126 187.312 172.176 205.439C173.603 209.844 174.751 214.269 175.86 218.548C177.898 226.395 179.821 233.805 183.203 240.875C193.258 261.822 215.041 272.292 237.422 266.915C263.278 260.547 280.685 230.82 277.104 199.193L277.085 199.027Z" fill="#FBD300"/>
<path d="M101.608 317.785C72.9565 281.872 61.4272 245.074 66.3594 205.276C70.623 169.805 92.4141 146.064 126.175 140.137C160.64 133.698 189.851 148.279 206.327 180.147C212.321 191.621 215.371 203.49 217.358 212.55L217.964 215.31L232.921 212.079L232.396 209.356C226.055 176.52 210.329 150.636 188.114 136.47C166.786 122.867 139.771 120.138 110.006 128.573C72.0405 139.119 49.3516 175.255 49.3135 225.237L49.3159 225.363C50.9287 262.153 64.9399 297.475 89.8833 327.565C90.7856 328.598 91.6802 329.735 92.5474 330.838L95.1855 334.163L106.959 323.77L104.804 321.403C103.72 320.227 102.598 319.01 101.608 317.785Z" fill="#FBD300"/>
<path d="M202.521 288.251L202.454 288.231C164.561 277.48 154.082 245.386 149.477 222.091L148.814 219.137L134.081 221.666L134.469 224.71C137.037 247.153 146.642 266.847 162.245 281.659C177.787 296.414 197.872 305.008 220.33 306.512L223.354 306.715V291.089L220.629 290.983C214.046 290.727 208.102 289.827 202.521 288.251Z" fill="#FBD300"/>
</svg>
